<svg id="visual" viewBox="0 0 900 600" width="900" height="600" xmlns="http://www.w3.org/2000/svg" xmlns:xlink="http://www.w3.org/1999/xlink" version="1.1"><g stroke-width="1" stroke-linejoin="bevel"><path d="M400 291L261 212L280 322Z" fill="#246688" stroke="#246688"></path><path d="M400 291L367 165L261 212Z" fill="#00101c" stroke="#00101c"></path><path d="M193 91L193 208L261 212Z" fill="#205a7a" stroke="#205a7a"></path><path d="M261 212L167 268L280 322Z" fill="#15384f" stroke="#15384f"></path><path d="M367 165L301 112L261 212Z" fill="#1d4e6b" stroke="#1d4e6b"></path><path d="M193 208L167 268L261 212Z" fill="#277297" stroke="#277297"></path><path d="M177 413L289 437L280 322Z" fill="#00101c" stroke="#00101c"></path><path d="M280 322L289 437L400 291Z" fill="#00101c" stroke="#00101c"></path><path d="M537 335L510 218L400 291Z" fill="#19435d" stroke="#19435d"></path><path d="M400 291L510 218L367 165Z" fill="#246688" stroke="#246688"></path><path d="M367 165L405 60L301 112Z" fill="#112e42" stroke="#112e42"></path><path d="M289 437L439 428L400 291Z" fill="#15384f" stroke="#15384f"></path><path d="M510 218L476 107L367 165Z" fill="#0c2435" stroke="#0c2435"></path><path d="M476 107L405 60L367 165Z" fill="#112e42" stroke="#112e42"></path><path d="M281 0L193 91L301 112Z" fill="#0c2435" stroke="#0c2435"></path><path d="M301 112L193 91L261 212Z" fill="#19435d" stroke="#19435d"></path><path d="M95 187L99 296L167 268Z" fill="#277297" stroke="#277297"></path><path d="M167 268L177 413L280 322Z" fill="#0c2435" stroke="#0c2435"></path><path d="M439 428L479 420L400 291Z" fill="#00101c" stroke="#00101c"></path><path d="M479 420L537 335L400 291Z" fill="#0c2435" stroke="#0c2435"></path><path d="M95 187L167 268L193 208Z" fill="#0c2435" stroke="#0c2435"></path><path d="M167 268L99 296L177 413Z" fill="#081a28" stroke="#081a28"></path><path d="M191 516L318 497L289 437Z" fill="#297ea6" stroke="#297ea6"></path><path d="M289 437L318 497L439 428Z" fill="#1d4e6b" stroke="#1d4e6b"></path><path d="M439 428L469 502L479 420Z" fill="#00101c" stroke="#00101c"></path><path d="M193 91L95 187L193 208Z" fill="#1d4e6b" stroke="#1d4e6b"></path><path d="M405 60L281 0L301 112Z" fill="#112e42" stroke="#112e42"></path><path d="M193 91L78 85L95 187Z" fill="#277297" stroke="#277297"></path><path d="M504 0L389 0L405 60Z" fill="#081a28" stroke="#081a28"></path><path d="M405 60L389 0L281 0Z" fill="#277297" stroke="#277297"></path><path d="M537 335L593 275L510 218Z" fill="#297ea6" stroke="#297ea6"></path><path d="M510 218L582 82L476 107Z" fill="#19435d" stroke="#19435d"></path><path d="M585 399L593 275L537 335Z" fill="#277297" stroke="#277297"></path><path d="M318 497L392 521L439 428Z" fill="#205a7a" stroke="#205a7a"></path><path d="M392 521L469 502L439 428Z" fill="#1d4e6b" stroke="#1d4e6b"></path><path d="M479 420L585 399L537 335Z" fill="#19435d" stroke="#19435d"></path><path d="M281 0L203 0L193 91Z" fill="#1d4e6b" stroke="#1d4e6b"></path><path d="M593 275L612 232L510 218Z" fill="#00101c" stroke="#00101c"></path><path d="M476 107L504 0L405 60Z" fill="#297ea6" stroke="#297ea6"></path><path d="M70 482L191 516L177 413Z" fill="#0c2435" stroke="#0c2435"></path><path d="M177 413L191 516L289 437Z" fill="#0c2435" stroke="#0c2435"></path><path d="M318 497L363 600L392 521Z" fill="#297ea6" stroke="#297ea6"></path><path d="M589 537L585 399L479 420Z" fill="#277297" stroke="#277297"></path><path d="M593 275L666 290L612 232Z" fill="#246688" stroke="#246688"></path><path d="M0 426L77 424L99 296Z" fill="#205a7a" stroke="#205a7a"></path><path d="M99 296L77 424L177 413Z" fill="#1d4e6b" stroke="#1d4e6b"></path><path d="M203 0L78 85L193 91Z" fill="#081a28" stroke="#081a28"></path><path d="M95 187L0 272L99 296Z" fill="#246688" stroke="#246688"></path><path d="M612 232L582 82L510 218Z" fill="#205a7a" stroke="#205a7a"></path><path d="M582 82L504 0L476 107Z" fill="#0c2435" stroke="#0c2435"></path><path d="M0 187L0 272L95 187Z" fill="#081a28" stroke="#081a28"></path><path d="M0 139L0 187L95 187Z" fill="#1d4e6b" stroke="#1d4e6b"></path><path d="M585 399L666 290L593 275Z" fill="#19435d" stroke="#19435d"></path><path d="M612 232L660 161L582 82Z" fill="#297ea6" stroke="#297ea6"></path><path d="M77 424L70 482L177 413Z" fill="#112e42" stroke="#112e42"></path><path d="M0 426L70 482L77 424Z" fill="#246688" stroke="#246688"></path><path d="M212 600L311 600L318 497Z" fill="#246688" stroke="#246688"></path><path d="M392 521L479 600L469 502Z" fill="#19435d" stroke="#19435d"></path><path d="M212 600L318 497L191 516Z" fill="#19435d" stroke="#19435d"></path><path d="M311 600L363 600L318 497Z" fill="#1d4e6b" stroke="#1d4e6b"></path><path d="M469 502L589 537L479 420Z" fill="#205a7a" stroke="#205a7a"></path><path d="M666 290L660 161L612 232Z" fill="#1d4e6b" stroke="#1d4e6b"></path><path d="M582 82L628 0L504 0Z" fill="#15384f" stroke="#15384f"></path><path d="M78 85L0 139L95 187Z" fill="#246688" stroke="#246688"></path><path d="M63 600L212 600L191 516Z" fill="#081a28" stroke="#081a28"></path><path d="M203 0L64 0L78 85Z" fill="#1d4e6b" stroke="#1d4e6b"></path><path d="M78 85L0 0L0 139Z" fill="#081a28" stroke="#081a28"></path><path d="M0 272L0 426L99 296Z" fill="#297ea6" stroke="#297ea6"></path><path d="M70 482L63 600L191 516Z" fill="#081a28" stroke="#081a28"></path><path d="M363 600L479 600L392 521Z" fill="#19435d" stroke="#19435d"></path><path d="M585 399L689 423L666 290Z" fill="#1d4e6b" stroke="#1d4e6b"></path><path d="M479 600L589 537L469 502Z" fill="#297ea6" stroke="#297ea6"></path><path d="M707 80L628 0L582 82Z" fill="#00101c" stroke="#00101c"></path><path d="M682 464L689 423L585 399Z" fill="#00101c" stroke="#00101c"></path><path d="M792 111L707 80L660 161Z" fill="#081a28" stroke="#081a28"></path><path d="M589 537L682 464L585 399Z" fill="#19435d" stroke="#19435d"></path><path d="M64 0L0 0L78 85Z" fill="#112e42" stroke="#112e42"></path><path d="M798 211L660 161L666 290Z" fill="#112e42" stroke="#112e42"></path><path d="M660 161L707 80L582 82Z" fill="#205a7a" stroke="#205a7a"></path><path d="M0 426L0 530L70 482Z" fill="#112e42" stroke="#112e42"></path><path d="M0 530L63 600L70 482Z" fill="#246688" stroke="#246688"></path><path d="M707 80L679 0L628 0Z" fill="#1d4e6b" stroke="#1d4e6b"></path><path d="M479 600L612 600L589 537Z" fill="#1d4e6b" stroke="#1d4e6b"></path><path d="M589 537L694 600L682 464Z" fill="#277297" stroke="#277297"></path><path d="M783 474L689 423L682 464Z" fill="#081a28" stroke="#081a28"></path><path d="M783 474L771 366L689 423Z" fill="#297ea6" stroke="#297ea6"></path><path d="M689 423L771 366L666 290Z" fill="#081a28" stroke="#081a28"></path><path d="M771 366L798 211L666 290Z" fill="#297ea6" stroke="#297ea6"></path><path d="M707 80L797 0L679 0Z" fill="#00101c" stroke="#00101c"></path><path d="M0 530L0 600L63 600Z" fill="#246688" stroke="#246688"></path><path d="M798 211L792 111L660 161Z" fill="#15384f" stroke="#15384f"></path><path d="M612 600L694 600L589 537Z" fill="#1d4e6b" stroke="#1d4e6b"></path><path d="M694 600L783 474L682 464Z" fill="#246688" stroke="#246688"></path><path d="M771 366L831 315L798 211Z" fill="#15384f" stroke="#15384f"></path><path d="M900 409L831 315L771 366Z" fill="#277297" stroke="#277297"></path><path d="M798 211L900 177L792 111Z" fill="#00101c" stroke="#00101c"></path><path d="M900 73L797 0L792 111Z" fill="#205a7a" stroke="#205a7a"></path><path d="M792 111L797 0L707 80Z" fill="#00101c" stroke="#00101c"></path><path d="M900 409L900 272L831 315Z" fill="#0c2435" stroke="#0c2435"></path><path d="M831 315L900 272L798 211Z" fill="#112e42" stroke="#112e42"></path><path d="M900 272L900 177L798 211Z" fill="#277297" stroke="#277297"></path><path d="M783 474L900 409L771 366Z" fill="#205a7a" stroke="#205a7a"></path><path d="M900 529L900 409L783 474Z" fill="#081a28" stroke="#081a28"></path><path d="M900 177L900 73L792 111Z" fill="#297ea6" stroke="#297ea6"></path><path d="M694 600L838 600L783 474Z" fill="#277297" stroke="#277297"></path><path d="M900 73L900 0L797 0Z" fill="#15384f" stroke="#15384f"></path><path d="M838 600L900 529L783 474Z" fill="#0c2435" stroke="#0c2435"></path><path d="M838 600L900 600L900 529Z" fill="#112e42" stroke="#112e42"></path></g></svg>